<mxfile host="Electron" agent="Mozilla/5.0 (Windows NT 10.0; Win64; x64) AppleWebKit/537.36 (KHTML, like Gecko) draw.io/26.1.1 Chrome/132.0.6834.210 Electron/34.3.3 Safari/537.36" version="26.1.1">
  <diagram name="Page-1" id="v2xfx5ls-fxZW4lkohC5">
    <mxGraphModel dx="1480" dy="934" grid="1" gridSize="10" guides="1" tooltips="1" connect="1" arrows="1" fold="1" page="1" pageScale="1" pageWidth="1654" pageHeight="2336" math="0" shadow="0">
      <root>
        <mxCell id="0" />
        <mxCell id="1" parent="0" />
        <mxCell id="jkVaLQ1dI_5v69o9YAra-1" value="" style="rounded=0;whiteSpace=wrap;html=1;fillColor=none;dashed=1;strokeColor=light-dark(#626060, #606060);" parent="1" vertex="1">
          <mxGeometry x="110" y="250" width="160" height="380" as="geometry" />
        </mxCell>
        <mxCell id="jkVaLQ1dI_5v69o9YAra-2" value="&lt;font style=&quot;font-size: 24px;&quot;&gt;&lt;b style=&quot;&quot;&gt;Sources&lt;/b&gt;&lt;/font&gt;" style="rounded=0;whiteSpace=wrap;html=1;dashed=1;strokeColor=none;" parent="1" vertex="1">
          <mxGeometry x="132.5" y="220" width="115" height="50" as="geometry" />
        </mxCell>
        <mxCell id="jkVaLQ1dI_5v69o9YAra-40" value="" style="edgeStyle=orthogonalEdgeStyle;rounded=0;orthogonalLoop=1;jettySize=auto;html=1;entryX=0;entryY=0.5;entryDx=0;entryDy=0;strokeColor=#646464;" parent="1" source="jkVaLQ1dI_5v69o9YAra-4" target="jkVaLQ1dI_5v69o9YAra-7" edge="1">
          <mxGeometry relative="1" as="geometry" />
        </mxCell>
        <mxCell id="jkVaLQ1dI_5v69o9YAra-41" style="edgeStyle=orthogonalEdgeStyle;rounded=0;orthogonalLoop=1;jettySize=auto;html=1;entryX=0;entryY=0.5;entryDx=0;entryDy=0;strokeColor=#646464;" parent="1" source="jkVaLQ1dI_5v69o9YAra-4" target="jkVaLQ1dI_5v69o9YAra-10" edge="1">
          <mxGeometry relative="1" as="geometry" />
        </mxCell>
        <mxCell id="jkVaLQ1dI_5v69o9YAra-42" style="edgeStyle=orthogonalEdgeStyle;rounded=0;orthogonalLoop=1;jettySize=auto;html=1;entryX=0;entryY=0.5;entryDx=0;entryDy=0;strokeColor=#646464;" parent="1" source="jkVaLQ1dI_5v69o9YAra-4" target="jkVaLQ1dI_5v69o9YAra-11" edge="1">
          <mxGeometry relative="1" as="geometry" />
        </mxCell>
        <mxCell id="jkVaLQ1dI_5v69o9YAra-43" style="edgeStyle=orthogonalEdgeStyle;rounded=0;orthogonalLoop=1;jettySize=auto;html=1;entryX=0;entryY=0.5;entryDx=0;entryDy=0;strokeColor=#646464;" parent="1" source="jkVaLQ1dI_5v69o9YAra-4" target="jkVaLQ1dI_5v69o9YAra-12" edge="1">
          <mxGeometry relative="1" as="geometry" />
        </mxCell>
        <mxCell id="jkVaLQ1dI_5v69o9YAra-44" style="edgeStyle=orthogonalEdgeStyle;rounded=0;orthogonalLoop=1;jettySize=auto;html=1;strokeColor=#646464;" parent="1" source="jkVaLQ1dI_5v69o9YAra-4" target="jkVaLQ1dI_5v69o9YAra-13" edge="1">
          <mxGeometry relative="1" as="geometry" />
        </mxCell>
        <mxCell id="jkVaLQ1dI_5v69o9YAra-45" style="edgeStyle=orthogonalEdgeStyle;rounded=0;orthogonalLoop=1;jettySize=auto;html=1;entryX=0;entryY=0.5;entryDx=0;entryDy=0;strokeColor=#646464;" parent="1" source="jkVaLQ1dI_5v69o9YAra-4" target="jkVaLQ1dI_5v69o9YAra-14" edge="1">
          <mxGeometry relative="1" as="geometry" />
        </mxCell>
        <mxCell id="jkVaLQ1dI_5v69o9YAra-46" style="edgeStyle=orthogonalEdgeStyle;rounded=0;orthogonalLoop=1;jettySize=auto;html=1;entryX=0;entryY=0.5;entryDx=0;entryDy=0;strokeColor=#646464;" parent="1" source="jkVaLQ1dI_5v69o9YAra-4" target="jkVaLQ1dI_5v69o9YAra-15" edge="1">
          <mxGeometry relative="1" as="geometry" />
        </mxCell>
        <mxCell id="jkVaLQ1dI_5v69o9YAra-47" style="edgeStyle=orthogonalEdgeStyle;rounded=0;orthogonalLoop=1;jettySize=auto;html=1;entryX=0;entryY=0.5;entryDx=0;entryDy=0;strokeColor=#646464;" parent="1" source="jkVaLQ1dI_5v69o9YAra-4" target="jkVaLQ1dI_5v69o9YAra-16" edge="1">
          <mxGeometry relative="1" as="geometry" />
        </mxCell>
        <mxCell id="jkVaLQ1dI_5v69o9YAra-48" style="edgeStyle=orthogonalEdgeStyle;rounded=0;orthogonalLoop=1;jettySize=auto;html=1;entryX=0;entryY=0.5;entryDx=0;entryDy=0;strokeColor=#646464;" parent="1" source="jkVaLQ1dI_5v69o9YAra-4" target="jkVaLQ1dI_5v69o9YAra-17" edge="1">
          <mxGeometry relative="1" as="geometry" />
        </mxCell>
        <mxCell id="jkVaLQ1dI_5v69o9YAra-4" value="" style="image;aspect=fixed;html=1;points=[];align=center;fontSize=12;image=img/lib/azure2/general/Folder_Blank.svg;" parent="1" vertex="1">
          <mxGeometry x="146.25" y="404.49" width="87.5" height="71.01" as="geometry" />
        </mxCell>
        <mxCell id="jkVaLQ1dI_5v69o9YAra-5" value="" style="rounded=1;whiteSpace=wrap;html=1;fillColor=#ffe6cc;strokeColor=#d79b00;fillStyle=hatch;labelPadding=12;arcSize=5;" parent="1" vertex="1">
          <mxGeometry x="360" y="200" width="240" height="560" as="geometry" />
        </mxCell>
        <mxCell id="jkVaLQ1dI_5v69o9YAra-6" value="&lt;font style=&quot;font-size: 24px;&quot;&gt;&lt;b style=&quot;&quot;&gt;Bronze Layer&lt;/b&gt;&lt;/font&gt;" style="rounded=1;whiteSpace=wrap;html=1;strokeColor=#d79b00;fillColor=#ffe6cc;perimeter=rectanglePerimeter;" parent="1" vertex="1">
          <mxGeometry x="360" y="140" width="240" height="50" as="geometry" />
        </mxCell>
        <mxCell id="PPzFpX4T8QJ0_AKq6R9n-24" style="edgeStyle=orthogonalEdgeStyle;rounded=0;orthogonalLoop=1;jettySize=auto;html=1;" edge="1" parent="1" source="jkVaLQ1dI_5v69o9YAra-7" target="PPzFpX4T8QJ0_AKq6R9n-14">
          <mxGeometry relative="1" as="geometry" />
        </mxCell>
        <mxCell id="jkVaLQ1dI_5v69o9YAra-7" value="&lt;span style=&quot;font-size: 16px;&quot;&gt;&lt;b&gt;customer&lt;/b&gt;&lt;/span&gt;" style="rounded=1;whiteSpace=wrap;html=1;strokeColor=#d79b00;fillColor=#ffe6cc;perimeter=rectanglePerimeter;" parent="1" vertex="1">
          <mxGeometry x="370" y="220" width="220" height="40" as="geometry" />
        </mxCell>
        <mxCell id="PPzFpX4T8QJ0_AKq6R9n-26" style="edgeStyle=orthogonalEdgeStyle;rounded=0;orthogonalLoop=1;jettySize=auto;html=1;entryX=0;entryY=0.5;entryDx=0;entryDy=0;" edge="1" parent="1" source="jkVaLQ1dI_5v69o9YAra-10" target="PPzFpX4T8QJ0_AKq6R9n-15">
          <mxGeometry relative="1" as="geometry" />
        </mxCell>
        <mxCell id="jkVaLQ1dI_5v69o9YAra-10" value="&lt;font style=&quot;font-size: 16px;&quot;&gt;&lt;b style=&quot;&quot;&gt;geolocation&lt;/b&gt;&lt;/font&gt;" style="rounded=1;whiteSpace=wrap;html=1;strokeColor=#d79b00;fillColor=#ffe6cc;perimeter=rectanglePerimeter;" parent="1" vertex="1">
          <mxGeometry x="370" y="280" width="220" height="40" as="geometry" />
        </mxCell>
        <mxCell id="PPzFpX4T8QJ0_AKq6R9n-27" style="edgeStyle=orthogonalEdgeStyle;rounded=0;orthogonalLoop=1;jettySize=auto;html=1;" edge="1" parent="1" source="jkVaLQ1dI_5v69o9YAra-11" target="PPzFpX4T8QJ0_AKq6R9n-16">
          <mxGeometry relative="1" as="geometry" />
        </mxCell>
        <mxCell id="jkVaLQ1dI_5v69o9YAra-11" value="&lt;span style=&quot;font-size: 16px;&quot;&gt;&lt;b&gt;order_items&lt;/b&gt;&lt;/span&gt;" style="rounded=1;whiteSpace=wrap;html=1;strokeColor=#d79b00;fillColor=#ffe6cc;perimeter=rectanglePerimeter;" parent="1" vertex="1">
          <mxGeometry x="370" y="340" width="220" height="40" as="geometry" />
        </mxCell>
        <mxCell id="PPzFpX4T8QJ0_AKq6R9n-28" style="edgeStyle=orthogonalEdgeStyle;rounded=0;orthogonalLoop=1;jettySize=auto;html=1;entryX=0;entryY=0.5;entryDx=0;entryDy=0;" edge="1" parent="1" source="jkVaLQ1dI_5v69o9YAra-12" target="PPzFpX4T8QJ0_AKq6R9n-17">
          <mxGeometry relative="1" as="geometry" />
        </mxCell>
        <mxCell id="jkVaLQ1dI_5v69o9YAra-12" value="&lt;span style=&quot;font-size: 16px;&quot;&gt;&lt;b&gt;order_payments&lt;/b&gt;&lt;/span&gt;" style="rounded=1;whiteSpace=wrap;html=1;strokeColor=#d79b00;fillColor=#ffe6cc;perimeter=rectanglePerimeter;" parent="1" vertex="1">
          <mxGeometry x="370" y="400" width="220" height="40" as="geometry" />
        </mxCell>
        <mxCell id="PPzFpX4T8QJ0_AKq6R9n-29" style="edgeStyle=orthogonalEdgeStyle;rounded=0;orthogonalLoop=1;jettySize=auto;html=1;entryX=0;entryY=0.5;entryDx=0;entryDy=0;" edge="1" parent="1" source="jkVaLQ1dI_5v69o9YAra-13" target="PPzFpX4T8QJ0_AKq6R9n-18">
          <mxGeometry relative="1" as="geometry" />
        </mxCell>
        <mxCell id="jkVaLQ1dI_5v69o9YAra-13" value="&lt;span style=&quot;font-size: 16px;&quot;&gt;&lt;b&gt;order_reviews&lt;/b&gt;&lt;/span&gt;" style="rounded=1;whiteSpace=wrap;html=1;strokeColor=#d79b00;fillColor=#ffe6cc;perimeter=rectanglePerimeter;" parent="1" vertex="1">
          <mxGeometry x="370" y="460" width="220" height="40" as="geometry" />
        </mxCell>
        <mxCell id="PPzFpX4T8QJ0_AKq6R9n-30" style="edgeStyle=orthogonalEdgeStyle;rounded=0;orthogonalLoop=1;jettySize=auto;html=1;entryX=0;entryY=0.5;entryDx=0;entryDy=0;" edge="1" parent="1" source="jkVaLQ1dI_5v69o9YAra-14" target="PPzFpX4T8QJ0_AKq6R9n-19">
          <mxGeometry relative="1" as="geometry" />
        </mxCell>
        <mxCell id="jkVaLQ1dI_5v69o9YAra-14" value="&lt;span style=&quot;font-size: 16px;&quot;&gt;&lt;b&gt;orders&lt;/b&gt;&lt;/span&gt;" style="rounded=1;whiteSpace=wrap;html=1;strokeColor=#d79b00;fillColor=#ffe6cc;perimeter=rectanglePerimeter;" parent="1" vertex="1">
          <mxGeometry x="370" y="520" width="220" height="40" as="geometry" />
        </mxCell>
        <mxCell id="PPzFpX4T8QJ0_AKq6R9n-32" style="edgeStyle=orthogonalEdgeStyle;rounded=0;orthogonalLoop=1;jettySize=auto;html=1;entryX=0;entryY=0.5;entryDx=0;entryDy=0;" edge="1" parent="1" source="jkVaLQ1dI_5v69o9YAra-15" target="PPzFpX4T8QJ0_AKq6R9n-20">
          <mxGeometry relative="1" as="geometry" />
        </mxCell>
        <mxCell id="jkVaLQ1dI_5v69o9YAra-15" value="&lt;font style=&quot;font-size: 16px;&quot;&gt;&lt;b style=&quot;&quot;&gt;products&lt;/b&gt;&lt;/font&gt;" style="rounded=1;whiteSpace=wrap;html=1;strokeColor=#d79b00;fillColor=#ffe6cc;perimeter=rectanglePerimeter;" parent="1" vertex="1">
          <mxGeometry x="370" y="580" width="220" height="40" as="geometry" />
        </mxCell>
        <mxCell id="PPzFpX4T8QJ0_AKq6R9n-33" style="edgeStyle=orthogonalEdgeStyle;rounded=0;orthogonalLoop=1;jettySize=auto;html=1;entryX=0;entryY=0.5;entryDx=0;entryDy=0;" edge="1" parent="1" source="jkVaLQ1dI_5v69o9YAra-16" target="PPzFpX4T8QJ0_AKq6R9n-21">
          <mxGeometry relative="1" as="geometry" />
        </mxCell>
        <mxCell id="jkVaLQ1dI_5v69o9YAra-16" value="&lt;b style=&quot;&quot;&gt;&lt;font style=&quot;font-size: 16px;&quot;&gt;product_catogory_name transaction&lt;/font&gt;&lt;/b&gt;" style="rounded=1;whiteSpace=wrap;html=1;strokeColor=#d79b00;fillColor=#ffe6cc;perimeter=rectanglePerimeter;" parent="1" vertex="1">
          <mxGeometry x="370" y="640" width="220" height="40" as="geometry" />
        </mxCell>
        <mxCell id="PPzFpX4T8QJ0_AKq6R9n-34" style="edgeStyle=orthogonalEdgeStyle;rounded=0;orthogonalLoop=1;jettySize=auto;html=1;entryX=0;entryY=0.5;entryDx=0;entryDy=0;" edge="1" parent="1" source="jkVaLQ1dI_5v69o9YAra-17" target="PPzFpX4T8QJ0_AKq6R9n-22">
          <mxGeometry relative="1" as="geometry" />
        </mxCell>
        <mxCell id="jkVaLQ1dI_5v69o9YAra-17" value="&lt;span style=&quot;font-size: 16px;&quot;&gt;&lt;b&gt;sellers&lt;/b&gt;&lt;/span&gt;" style="rounded=1;whiteSpace=wrap;html=1;strokeColor=#d79b00;fillColor=#ffe6cc;perimeter=rectanglePerimeter;" parent="1" vertex="1">
          <mxGeometry x="370" y="700" width="220" height="40" as="geometry" />
        </mxCell>
        <mxCell id="PPzFpX4T8QJ0_AKq6R9n-12" value="" style="rounded=1;whiteSpace=wrap;html=1;fillColor=#eeeeee;strokeColor=#36393d;fillStyle=hatch;labelPadding=12;arcSize=5;" vertex="1" parent="1">
          <mxGeometry x="680" y="200" width="240" height="560" as="geometry" />
        </mxCell>
        <mxCell id="PPzFpX4T8QJ0_AKq6R9n-13" value="&lt;font style=&quot;font-size: 24px;&quot;&gt;&lt;b style=&quot;&quot;&gt;Silver Layer&lt;/b&gt;&lt;/font&gt;" style="rounded=1;whiteSpace=wrap;html=1;strokeColor=#36393d;fillColor=#eeeeee;perimeter=rectanglePerimeter;" vertex="1" parent="1">
          <mxGeometry x="680" y="140" width="240" height="50" as="geometry" />
        </mxCell>
        <mxCell id="PPzFpX4T8QJ0_AKq6R9n-14" value="&lt;span style=&quot;font-size: 16px;&quot;&gt;&lt;b&gt;customer&lt;/b&gt;&lt;/span&gt;" style="rounded=1;whiteSpace=wrap;html=1;strokeColor=#36393d;fillColor=#eeeeee;perimeter=rectanglePerimeter;" vertex="1" parent="1">
          <mxGeometry x="690" y="220" width="220" height="40" as="geometry" />
        </mxCell>
        <mxCell id="PPzFpX4T8QJ0_AKq6R9n-15" value="&lt;font style=&quot;font-size: 16px;&quot;&gt;&lt;b style=&quot;&quot;&gt;geolocation&lt;/b&gt;&lt;/font&gt;" style="rounded=1;whiteSpace=wrap;html=1;strokeColor=#36393d;fillColor=#eeeeee;perimeter=rectanglePerimeter;" vertex="1" parent="1">
          <mxGeometry x="690" y="280" width="220" height="40" as="geometry" />
        </mxCell>
        <mxCell id="PPzFpX4T8QJ0_AKq6R9n-16" value="&lt;span style=&quot;font-size: 16px;&quot;&gt;&lt;b&gt;items&lt;/b&gt;&lt;/span&gt;" style="rounded=1;whiteSpace=wrap;html=1;strokeColor=#36393d;fillColor=#eeeeee;perimeter=rectanglePerimeter;" vertex="1" parent="1">
          <mxGeometry x="690" y="340" width="220" height="40" as="geometry" />
        </mxCell>
        <mxCell id="PPzFpX4T8QJ0_AKq6R9n-17" value="&lt;span style=&quot;font-size: 16px;&quot;&gt;&lt;b&gt;payments&lt;/b&gt;&lt;/span&gt;" style="rounded=1;whiteSpace=wrap;html=1;strokeColor=#36393d;fillColor=#eeeeee;perimeter=rectanglePerimeter;" vertex="1" parent="1">
          <mxGeometry x="690" y="400" width="220" height="40" as="geometry" />
        </mxCell>
        <mxCell id="PPzFpX4T8QJ0_AKq6R9n-18" value="&lt;span style=&quot;font-size: 16px;&quot;&gt;&lt;b&gt;reviews&lt;/b&gt;&lt;/span&gt;" style="rounded=1;whiteSpace=wrap;html=1;strokeColor=#36393d;fillColor=#eeeeee;perimeter=rectanglePerimeter;" vertex="1" parent="1">
          <mxGeometry x="690" y="460" width="220" height="40" as="geometry" />
        </mxCell>
        <mxCell id="PPzFpX4T8QJ0_AKq6R9n-19" value="&lt;span style=&quot;font-size: 16px;&quot;&gt;&lt;b&gt;orders&lt;/b&gt;&lt;/span&gt;" style="rounded=1;whiteSpace=wrap;html=1;strokeColor=#36393d;fillColor=#eeeeee;perimeter=rectanglePerimeter;" vertex="1" parent="1">
          <mxGeometry x="690" y="520" width="220" height="40" as="geometry" />
        </mxCell>
        <mxCell id="PPzFpX4T8QJ0_AKq6R9n-20" value="&lt;font style=&quot;font-size: 16px;&quot;&gt;&lt;b style=&quot;&quot;&gt;products&lt;/b&gt;&lt;/font&gt;" style="rounded=1;whiteSpace=wrap;html=1;strokeColor=#36393d;fillColor=#eeeeee;perimeter=rectanglePerimeter;" vertex="1" parent="1">
          <mxGeometry x="690" y="580" width="220" height="40" as="geometry" />
        </mxCell>
        <mxCell id="PPzFpX4T8QJ0_AKq6R9n-21" value="&lt;b style=&quot;&quot;&gt;&lt;font style=&quot;font-size: 16px;&quot;&gt;product_catogory_name transaction&lt;/font&gt;&lt;/b&gt;" style="rounded=1;whiteSpace=wrap;html=1;strokeColor=#36393d;fillColor=#eeeeee;perimeter=rectanglePerimeter;" vertex="1" parent="1">
          <mxGeometry x="690" y="640" width="220" height="40" as="geometry" />
        </mxCell>
        <mxCell id="PPzFpX4T8QJ0_AKq6R9n-22" value="&lt;span style=&quot;font-size: 16px;&quot;&gt;&lt;b&gt;sellers&lt;/b&gt;&lt;/span&gt;" style="rounded=1;whiteSpace=wrap;html=1;strokeColor=#36393d;fillColor=#eeeeee;perimeter=rectanglePerimeter;" vertex="1" parent="1">
          <mxGeometry x="690" y="700" width="220" height="40" as="geometry" />
        </mxCell>
        <mxCell id="PPzFpX4T8QJ0_AKq6R9n-36" value="&lt;font style=&quot;font-size: 16px;&quot;&gt;file.csv&lt;/font&gt;" style="text;html=1;align=center;verticalAlign=middle;whiteSpace=wrap;rounded=0;" vertex="1" parent="1">
          <mxGeometry x="160" y="475.5" width="60" height="30" as="geometry" />
        </mxCell>
        <mxCell id="PPzFpX4T8QJ0_AKq6R9n-37" value="" style="rounded=1;whiteSpace=wrap;html=1;fillColor=#fff2cc;strokeColor=#d6b656;fillStyle=hatch;labelPadding=12;arcSize=5;" vertex="1" parent="1">
          <mxGeometry x="1000" y="200" width="240" height="560" as="geometry" />
        </mxCell>
        <mxCell id="PPzFpX4T8QJ0_AKq6R9n-38" value="&lt;font style=&quot;font-size: 24px;&quot;&gt;&lt;b style=&quot;&quot;&gt;Gold Layer&lt;/b&gt;&lt;/font&gt;" style="rounded=1;whiteSpace=wrap;html=1;strokeColor=#d6b656;fillColor=#fff2cc;perimeter=rectanglePerimeter;" vertex="1" parent="1">
          <mxGeometry x="1000" y="140" width="240" height="50" as="geometry" />
        </mxCell>
        <mxCell id="PPzFpX4T8QJ0_AKq6R9n-39" value="&lt;span style=&quot;font-size: 16px;&quot;&gt;&lt;b&gt;fact_orders&lt;/b&gt;&lt;/span&gt;" style="rounded=1;whiteSpace=wrap;html=1;strokeColor=#d6b656;fillColor=#fff2cc;perimeter=rectanglePerimeter;" vertex="1" parent="1">
          <mxGeometry x="1010" y="290" width="220" height="40" as="geometry" />
        </mxCell>
        <mxCell id="PPzFpX4T8QJ0_AKq6R9n-40" value="&lt;font style=&quot;font-size: 16px;&quot;&gt;&lt;b style=&quot;&quot;&gt;dim_sellers&lt;/b&gt;&lt;/font&gt;" style="rounded=1;whiteSpace=wrap;html=1;strokeColor=#d6b656;fillColor=#fff2cc;perimeter=rectanglePerimeter;" vertex="1" parent="1">
          <mxGeometry x="1010" y="700" width="220" height="40" as="geometry" />
        </mxCell>
        <mxCell id="PPzFpX4T8QJ0_AKq6R9n-41" value="&lt;span style=&quot;font-size: 16px;&quot;&gt;&lt;b&gt;dim_customers&lt;/b&gt;&lt;/span&gt;" style="rounded=1;whiteSpace=wrap;html=1;strokeColor=#d6b656;fillColor=#fff2cc;perimeter=rectanglePerimeter;" vertex="1" parent="1">
          <mxGeometry x="1010" y="420" width="220" height="40" as="geometry" />
        </mxCell>
        <mxCell id="PPzFpX4T8QJ0_AKq6R9n-42" value="&lt;span style=&quot;font-size: 16px;&quot;&gt;&lt;b&gt;dim_products&lt;/b&gt;&lt;/span&gt;" style="rounded=1;whiteSpace=wrap;html=1;strokeColor=#d6b656;fillColor=#fff2cc;perimeter=rectanglePerimeter;" vertex="1" parent="1">
          <mxGeometry x="1010" y="560" width="220" height="40" as="geometry" />
        </mxCell>
        <mxCell id="PPzFpX4T8QJ0_AKq6R9n-43" value="&lt;span style=&quot;font-size: 16px;&quot;&gt;&lt;b&gt;dim_reviews&lt;/b&gt;&lt;/span&gt;" style="rounded=1;whiteSpace=wrap;html=1;strokeColor=#d6b656;fillColor=#fff2cc;perimeter=rectanglePerimeter;" vertex="1" parent="1">
          <mxGeometry x="1010" y="630" width="220" height="40" as="geometry" />
        </mxCell>
        <mxCell id="PPzFpX4T8QJ0_AKq6R9n-44" value="&lt;span style=&quot;font-size: 16px;&quot;&gt;&lt;b&gt;dim_payments&lt;/b&gt;&lt;/span&gt;" style="rounded=1;whiteSpace=wrap;html=1;strokeColor=#d6b656;fillColor=#fff2cc;perimeter=rectanglePerimeter;" vertex="1" parent="1">
          <mxGeometry x="1010" y="490" width="220" height="40" as="geometry" />
        </mxCell>
        <mxCell id="PPzFpX4T8QJ0_AKq6R9n-55" value="" style="endArrow=classic;html=1;rounded=0;exitX=1;exitY=0.5;exitDx=0;exitDy=0;entryX=0;entryY=0.5;entryDx=0;entryDy=0;" edge="1" parent="1" source="PPzFpX4T8QJ0_AKq6R9n-19" target="PPzFpX4T8QJ0_AKq6R9n-39">
          <mxGeometry width="50" height="50" relative="1" as="geometry">
            <mxPoint x="930" y="440" as="sourcePoint" />
            <mxPoint x="980" y="390" as="targetPoint" />
          </mxGeometry>
        </mxCell>
        <mxCell id="PPzFpX4T8QJ0_AKq6R9n-56" value="" style="endArrow=classic;html=1;rounded=0;exitX=1;exitY=0.5;exitDx=0;exitDy=0;entryX=0;entryY=0.25;entryDx=0;entryDy=0;" edge="1" parent="1" source="PPzFpX4T8QJ0_AKq6R9n-16" target="PPzFpX4T8QJ0_AKq6R9n-39">
          <mxGeometry width="50" height="50" relative="1" as="geometry">
            <mxPoint x="920" y="350" as="sourcePoint" />
            <mxPoint x="970" y="300" as="targetPoint" />
          </mxGeometry>
        </mxCell>
        <mxCell id="PPzFpX4T8QJ0_AKq6R9n-57" value="" style="endArrow=classic;html=1;rounded=0;exitX=1;exitY=0.5;exitDx=0;exitDy=0;entryX=0;entryY=0.5;entryDx=0;entryDy=0;" edge="1" parent="1" source="PPzFpX4T8QJ0_AKq6R9n-14" target="PPzFpX4T8QJ0_AKq6R9n-41">
          <mxGeometry width="50" height="50" relative="1" as="geometry">
            <mxPoint x="940" y="505" as="sourcePoint" />
            <mxPoint x="990" y="455" as="targetPoint" />
          </mxGeometry>
        </mxCell>
        <mxCell id="PPzFpX4T8QJ0_AKq6R9n-58" value="" style="endArrow=classic;html=1;rounded=0;exitX=1;exitY=0.5;exitDx=0;exitDy=0;entryX=0;entryY=0.75;entryDx=0;entryDy=0;" edge="1" parent="1" source="PPzFpX4T8QJ0_AKq6R9n-15" target="PPzFpX4T8QJ0_AKq6R9n-41">
          <mxGeometry width="50" height="50" relative="1" as="geometry">
            <mxPoint x="920" y="250" as="sourcePoint" />
            <mxPoint x="1020" y="510" as="targetPoint" />
          </mxGeometry>
        </mxCell>
        <mxCell id="PPzFpX4T8QJ0_AKq6R9n-61" value="" style="endArrow=classic;html=1;rounded=0;exitX=1;exitY=0.5;exitDx=0;exitDy=0;" edge="1" parent="1" source="PPzFpX4T8QJ0_AKq6R9n-15">
          <mxGeometry width="50" height="50" relative="1" as="geometry">
            <mxPoint x="930" y="260" as="sourcePoint" />
            <mxPoint x="1010" y="710" as="targetPoint" />
          </mxGeometry>
        </mxCell>
        <mxCell id="PPzFpX4T8QJ0_AKq6R9n-62" value="" style="endArrow=classic;html=1;rounded=0;exitX=1;exitY=0.5;exitDx=0;exitDy=0;entryX=0;entryY=0.75;entryDx=0;entryDy=0;" edge="1" parent="1" source="PPzFpX4T8QJ0_AKq6R9n-22" target="PPzFpX4T8QJ0_AKq6R9n-40">
          <mxGeometry width="50" height="50" relative="1" as="geometry">
            <mxPoint x="940" y="270" as="sourcePoint" />
            <mxPoint x="1040" y="530" as="targetPoint" />
          </mxGeometry>
        </mxCell>
        <mxCell id="PPzFpX4T8QJ0_AKq6R9n-64" value="" style="endArrow=classic;html=1;rounded=0;exitX=1;exitY=0.5;exitDx=0;exitDy=0;" edge="1" parent="1" source="PPzFpX4T8QJ0_AKq6R9n-17">
          <mxGeometry width="50" height="50" relative="1" as="geometry">
            <mxPoint x="950" y="280" as="sourcePoint" />
            <mxPoint x="1010" y="510" as="targetPoint" />
          </mxGeometry>
        </mxCell>
        <mxCell id="PPzFpX4T8QJ0_AKq6R9n-65" value="" style="endArrow=classic;html=1;rounded=0;exitX=1;exitY=0.5;exitDx=0;exitDy=0;entryX=0;entryY=0.5;entryDx=0;entryDy=0;" edge="1" parent="1" source="PPzFpX4T8QJ0_AKq6R9n-18" target="PPzFpX4T8QJ0_AKq6R9n-43">
          <mxGeometry width="50" height="50" relative="1" as="geometry">
            <mxPoint x="960" y="290" as="sourcePoint" />
            <mxPoint x="1060" y="550" as="targetPoint" />
          </mxGeometry>
        </mxCell>
        <mxCell id="PPzFpX4T8QJ0_AKq6R9n-66" value="" style="endArrow=classic;html=1;rounded=0;exitX=1;exitY=0.5;exitDx=0;exitDy=0;entryX=0;entryY=0.5;entryDx=0;entryDy=0;" edge="1" parent="1" source="PPzFpX4T8QJ0_AKq6R9n-20" target="PPzFpX4T8QJ0_AKq6R9n-42">
          <mxGeometry width="50" height="50" relative="1" as="geometry">
            <mxPoint x="970" y="300" as="sourcePoint" />
            <mxPoint x="1070" y="560" as="targetPoint" />
          </mxGeometry>
        </mxCell>
        <mxCell id="PPzFpX4T8QJ0_AKq6R9n-67" value="" style="endArrow=classic;html=1;rounded=0;exitX=1;exitY=0.5;exitDx=0;exitDy=0;entryX=0;entryY=0.75;entryDx=0;entryDy=0;" edge="1" parent="1" source="PPzFpX4T8QJ0_AKq6R9n-21" target="PPzFpX4T8QJ0_AKq6R9n-42">
          <mxGeometry width="50" height="50" relative="1" as="geometry">
            <mxPoint x="980" y="310" as="sourcePoint" />
            <mxPoint x="1080" y="570" as="targetPoint" />
          </mxGeometry>
        </mxCell>
      </root>
    </mxGraphModel>
  </diagram>
</mxfile>
